# Blender 4.0.1
# www.blender.org
mtllib barrel.mtl
o Cube
v 0.000000 -0.250000 0.000000
v -0.000000 0.250000 -6.000000
v 0.000000 0.250000 0.000000
v -0.000000 -0.250000 -6.000000
v -0.250000 0.000000 -6.000000
v 0.250000 0.000000 0.000000
v 0.250000 0.000000 -6.000000
v -0.250000 0.000000 0.000000
v -0.000000 0.000000 -6.000000
v 0.000000 0.000000 0.000000
v -0.250000 0.000000 -6.000000
v -0.000000 0.250000 -6.000000
v -0.246922 0.039109 -6.000000
v -0.237764 0.077254 -6.000000
v -0.222752 0.113498 -6.000000
v -0.202254 0.146946 -6.000000
v -0.176777 0.176777 -6.000000
v -0.146946 0.202254 -6.000000
v -0.113498 0.222752 -6.000000
v -0.077254 0.237764 -6.000000
v -0.039109 0.246922 -6.000000
v 0.000000 0.250000 0.000000
v -0.250000 0.000000 0.000000
v -0.039108 0.246922 0.000000
v -0.077254 0.237764 0.000000
v -0.113497 0.222752 0.000000
v -0.146946 0.202254 0.000000
v -0.176777 0.176777 0.000000
v -0.202254 0.146946 0.000000
v -0.222751 0.113498 0.000000
v -0.237764 0.077254 0.000000
v -0.246922 0.039109 0.000000
v -0.000000 0.250000 -6.000000
v 0.250000 0.000000 -6.000000
v 0.039108 0.246922 -6.000000
v 0.077254 0.237764 -6.000000
v 0.113497 0.222752 -6.000000
v 0.146946 0.202254 -6.000000
v 0.176777 0.176777 -6.000000
v 0.202254 0.146946 -6.000000
v 0.222751 0.113498 -6.000000
v 0.237764 0.077254 -6.000000
v 0.246922 0.039109 -6.000000
v 0.250000 0.000000 0.000000
v 0.000000 0.250000 0.000000
v 0.246922 0.039109 0.000000
v 0.237764 0.077254 0.000000
v 0.222752 0.113498 0.000000
v 0.202254 0.146946 0.000000
v 0.176777 0.176777 0.000000
v 0.146946 0.202254 0.000000
v 0.113498 0.222752 0.000000
v 0.077254 0.237764 0.000000
v 0.039109 0.246922 0.000000
v 0.250000 0.000000 -6.000000
v -0.000000 -0.250000 -6.000000
v 0.246922 -0.039109 -6.000000
v 0.237764 -0.077254 -6.000000
v 0.222751 -0.113498 -6.000000
v 0.202254 -0.146946 -6.000000
v 0.176777 -0.176777 -6.000000
v 0.146946 -0.202254 -6.000000
v 0.113497 -0.222752 -6.000000
v 0.077254 -0.237764 -6.000000
v 0.039108 -0.246922 -6.000000
v 0.000000 -0.250000 0.000000
v 0.250000 0.000000 0.000000
v 0.039109 -0.246922 0.000000
v 0.077254 -0.237764 0.000000
v 0.113498 -0.222752 0.000000
v 0.146946 -0.202254 0.000000
v 0.176777 -0.176777 0.000000
v 0.202254 -0.146946 0.000000
v 0.222752 -0.113498 0.000000
v 0.237764 -0.077254 0.000000
v 0.246922 -0.039109 0.000000
v -0.000000 -0.250000 -6.000000
v -0.250000 0.000000 -6.000000
v -0.039109 -0.246922 -6.000000
v -0.077254 -0.237764 -6.000000
v -0.113498 -0.222752 -6.000000
v -0.146946 -0.202254 -6.000000
v -0.176777 -0.176777 -6.000000
v -0.202254 -0.146946 -6.000000
v -0.222752 -0.113498 -6.000000
v -0.237764 -0.077254 -6.000000
v -0.246922 -0.039109 -6.000000
v -0.250000 0.000000 0.000000
v 0.000000 -0.250000 0.000000
v -0.246922 -0.039109 0.000000
v -0.237764 -0.077254 0.000000
v -0.222751 -0.113498 0.000000
v -0.202254 -0.146946 0.000000
v -0.176777 -0.176777 0.000000
v -0.146946 -0.202254 0.000000
v -0.113497 -0.222752 0.000000
v -0.077254 -0.237764 0.000000
v -0.039108 -0.246922 0.000000
vn -0.0000 -0.0000 -1.0000
vn -0.0000 1.0000 -0.0000
vn -0.0000 -0.0000 1.0000
vn -0.0785 0.9969 -0.0000
vn -0.2334 0.9724 -0.0000
vn -0.3827 0.9239 -0.0000
vn -0.5225 0.8526 -0.0000
vn -0.6494 0.7604 -0.0000
vn -0.7604 0.6494 -0.0000
vn -0.8526 0.5225 -0.0000
vn -0.9239 0.3827 -0.0000
vn -0.9724 0.2334 -0.0000
vn -0.9969 0.0785 -0.0000
vn 0.0785 0.9969 -0.0000
vn 0.2334 0.9724 -0.0000
vn 0.3827 0.9239 -0.0000
vn 0.5225 0.8526 -0.0000
vn 0.6494 0.7604 -0.0000
vn 0.7604 0.6494 -0.0000
vn 0.8526 0.5225 -0.0000
vn 0.9239 0.3827 -0.0000
vn 0.9724 0.2334 -0.0000
vn 0.9969 0.0785 -0.0000
vn 0.0785 -0.9969 -0.0000
vn 0.2334 -0.9724 -0.0000
vn 0.3827 -0.9239 -0.0000
vn 0.5225 -0.8526 -0.0000
vn 0.6494 -0.7604 -0.0000
vn 0.7604 -0.6494 -0.0000
vn 0.8526 -0.5225 -0.0000
vn 0.9239 -0.3827 -0.0000
vn 0.9724 -0.2334 -0.0000
vn 0.9969 -0.0785 -0.0000
vn -0.0785 -0.9969 -0.0000
vn -0.2334 -0.9724 -0.0000
vn -0.3827 -0.9239 -0.0000
vn -0.5225 -0.8526 -0.0000
vn -0.6494 -0.7604 -0.0000
vn -0.7604 -0.6494 -0.0000
vn -0.8526 -0.5225 -0.0000
vn -0.9239 -0.3827 -0.0000
vn -0.9724 -0.2334 -0.0000
vn -0.9969 -0.0785 -0.0000
vt 0.500000 0.625000
vt 0.625000 0.625000
vt 0.623461 0.644554
vt 0.618882 0.663627
vt 0.611376 0.681749
vt 0.601127 0.698473
vt 0.588388 0.713388
vt 0.573473 0.726127
vt 0.556749 0.736376
vt 0.538627 0.743882
vt 0.519554 0.748461
vt 0.500000 0.750000
vt 0.875000 0.625000
vt 0.375000 0.625000
vt 0.480446 0.748461
vt 0.461373 0.743882
vt 0.443251 0.736376
vt 0.426527 0.726127
vt 0.411612 0.713388
vt 0.398873 0.698473
vt 0.388624 0.681749
vt 0.381118 0.663627
vt 0.376539 0.644554
vt 0.500000 0.000000
vt 0.519554 0.001539
vt 0.538627 0.006118
vt 0.556749 0.013624
vt 0.573473 0.023873
vt 0.588388 0.036612
vt 0.601127 0.051527
vt 0.611376 0.068251
vt 0.618882 0.086373
vt 0.623461 0.105446
vt 0.625000 0.125000
vt 0.500000 0.125000
vt 0.623461 0.144554
vt 0.618882 0.163627
vt 0.611376 0.181749
vt 0.601127 0.198473
vt 0.588388 0.213388
vt 0.573473 0.226127
vt 0.556749 0.236376
vt 0.538627 0.243882
vt 0.519554 0.248461
vt 0.500000 0.250000
vt 0.500000 0.500000
vt 0.375000 0.125000
vt 0.480446 0.248461
vt 0.461373 0.243882
vt 0.443251 0.236376
vt 0.426527 0.226127
vt 0.411612 0.213388
vt 0.398873 0.198473
vt 0.388624 0.181749
vt 0.381118 0.163627
vt 0.376539 0.144554
vt 0.519554 0.501539
vt 0.538627 0.506118
vt 0.556749 0.513624
vt 0.573473 0.523873
vt 0.588388 0.536612
vt 0.601127 0.551527
vt 0.611376 0.568251
vt 0.618882 0.586373
vt 0.623461 0.605446
vt 0.125000 0.625000
vt 0.376539 0.605446
vt 0.381118 0.586373
vt 0.388624 0.568251
vt 0.398873 0.551527
vt 0.411612 0.536612
vt 0.426527 0.523873
vt 0.443251 0.513624
vt 0.461373 0.506118
vt 0.480446 0.501539
vt 0.376539 0.105446
vt 0.381118 0.086373
vt 0.388624 0.068251
vt 0.398873 0.051527
vt 0.411612 0.036612
vt 0.426527 0.023873
vt 0.443251 0.013624
vt 0.461373 0.006118
vt 0.480446 0.001539
vt 0.625000 0.605446
vt 0.875000 0.605446
vt 0.625000 0.586373
vt 0.875000 0.586373
vt 0.625000 0.568251
vt 0.875000 0.568251
vt 0.625000 0.551527
vt 0.875000 0.551527
vt 0.625000 0.500000
vt 0.875000 0.500000
vt 0.625000 0.250000
vt 0.573473 0.500000
vt 0.573473 0.250000
vt 0.556749 0.500000
vt 0.556749 0.250000
vt 0.538627 0.500000
vt 0.538627 0.250000
vt 0.519554 0.500000
vt 0.519554 0.250000
vt 0.875000 0.644554
vt 0.625000 0.644554
vt 0.875000 0.663627
vt 0.625000 0.663627
vt 0.875000 0.681749
vt 0.625000 0.681749
vt 0.875000 0.698473
vt 0.625000 0.698473
vt 0.875000 0.750000
vt 0.625000 0.750000
vt 0.625000 1.000000
vt 0.573473 1.000000
vt 0.573473 0.750000
vt 0.556749 1.000000
vt 0.556749 0.750000
vt 0.538627 1.000000
vt 0.538627 0.750000
vt 0.519554 1.000000
vt 0.519554 0.750000
vt 0.500000 1.000000
vt 0.375000 0.644554
vt 0.125000 0.644554
vt 0.375000 0.663627
vt 0.125000 0.663627
vt 0.375000 0.681749
vt 0.125000 0.681749
vt 0.375000 0.698473
vt 0.125000 0.698473
vt 0.375000 0.750000
vt 0.125000 0.750000
vt 0.375000 1.000000
vt 0.426527 0.750000
vt 0.426527 1.000000
vt 0.443251 0.750000
vt 0.443251 1.000000
vt 0.461373 0.750000
vt 0.461373 1.000000
vt 0.480446 0.750000
vt 0.480446 1.000000
vt 0.125000 0.605446
vt 0.375000 0.605446
vt 0.125000 0.586373
vt 0.375000 0.586373
vt 0.125000 0.568251
vt 0.375000 0.568251
vt 0.125000 0.551527
vt 0.375000 0.551527
vt 0.125000 0.500000
vt 0.375000 0.500000
vt 0.375000 0.250000
vt 0.426527 0.250000
vt 0.426527 0.500000
vt 0.443251 0.250000
vt 0.443251 0.500000
vt 0.461373 0.250000
vt 0.461373 0.500000
vt 0.480446 0.250000
vt 0.480446 0.500000
s 0
usemtl Material
f 9/1/1 2/2/1 33/2/1 35/3/1 36/4/1 37/5/1 38/6/1 39/7/1 40/8/1 41/9/1 42/10/1 43/11/1 34/12/1 7/12/1
f 2/2/2 3/13/2 45/13/2 33/2/2
f 4/14/1 9/1/1 7/12/1 55/12/1 57/15/1 58/16/1 59/17/1 60/18/1 61/19/1 62/20/1 63/21/1 64/22/1 65/23/1 56/14/1
f 6/24/3 44/24/3 46/25/3 47/26/3 48/27/3 49/28/3 50/29/3 51/30/3 52/31/3 53/32/3 54/33/3 45/34/3 3/34/3 10/35/3
f 10/35/3 3/34/3 22/34/3 24/36/3 25/37/3 26/38/3 27/39/3 28/40/3 29/41/3 30/42/3 31/43/3 32/44/3 23/45/3 8/45/3
f 8/45/2 23/45/2 11/46/2 5/46/2
f 1/47/3 10/35/3 8/45/3 88/45/3 90/48/3 91/49/3 92/50/3 93/51/3 94/52/3 95/53/3 96/54/3 97/55/3 98/56/3 89/47/3
f 5/46/1 11/46/1 13/57/1 14/58/1 15/59/1 16/60/1 17/61/1 18/62/1 19/63/1 20/64/1 21/65/1 12/2/1 2/2/1 9/1/1
f 89/66/2 77/14/2 4/14/2 1/66/2
f 77/14/1 79/67/1 80/68/1 81/69/1 82/70/1 83/71/1 84/72/1 85/73/1 86/74/1 87/75/1 78/46/1 5/46/1 9/1/1 4/14/1
f 66/47/3 68/76/3 69/77/3 70/78/3 71/79/3 72/80/3 73/81/3 74/82/3 75/83/3 76/84/3 67/24/3 6/24/3 10/35/3 1/47/3
f 1/66/2 4/14/2 56/14/2 66/66/2
f 22/13/4 12/2/4 21/85/4 24/86/4
f 24/86/5 21/85/5 20/87/5 25/88/5
f 25/88/6 20/87/6 19/89/6 26/90/6
f 26/90/7 19/89/7 18/91/7 27/92/7
f 27/92/8 18/91/8 17/93/8 28/94/8
f 28/95/9 17/93/9 16/96/9 29/97/9
f 29/97/10 16/96/10 15/98/10 30/99/10
f 30/99/11 15/98/11 14/100/11 31/101/11
f 31/101/12 14/100/12 13/102/12 32/103/12
f 32/103/13 13/102/13 11/46/13 23/45/13
f 12/2/2 22/13/2 3/13/2 2/2/2
f 33/2/14 45/13/14 54/104/14 35/105/14
f 35/105/15 54/104/15 53/106/15 36/107/15
f 36/107/16 53/106/16 52/108/16 37/109/16
f 37/109/17 52/108/17 51/110/17 38/111/17
f 38/111/18 51/110/18 50/112/18 39/113/18
f 39/113/19 50/114/19 49/115/19 40/116/19
f 40/116/20 49/115/20 48/117/20 41/118/20
f 41/118/21 48/117/21 47/119/21 42/120/21
f 42/120/22 47/119/22 46/121/22 43/122/22
f 43/122/23 46/121/23 44/123/23 34/12/23
f 7/12/2 34/12/2 44/123/2 6/123/2
f 66/66/24 56/14/24 65/124/24 68/125/24
f 68/125/25 65/124/25 64/126/25 69/127/25
f 69/127/26 64/126/26 63/128/26 70/129/26
f 70/129/27 63/128/27 62/130/27 71/131/27
f 71/131/28 62/130/28 61/132/28 72/133/28
f 72/134/29 61/132/29 60/135/29 73/136/29
f 73/136/30 60/135/30 59/137/30 74/138/30
f 74/138/31 59/137/31 58/139/31 75/140/31
f 75/140/32 58/139/32 57/141/32 76/142/32
f 76/142/33 57/141/33 55/12/33 67/123/33
f 55/12/2 7/12/2 6/123/2 67/123/2
f 77/14/34 89/66/34 98/143/34 79/144/34
f 79/144/35 98/143/35 97/145/35 80/146/35
f 80/146/36 97/145/36 96/147/36 81/148/36
f 81/148/37 96/147/37 95/149/37 82/150/37
f 82/150/38 95/149/38 94/151/38 83/152/38
f 83/152/39 94/153/39 93/154/39 84/155/39
f 84/155/40 93/154/40 92/156/40 85/157/40
f 85/157/41 92/156/41 91/158/41 86/159/41
f 86/159/42 91/158/42 90/160/42 87/161/42
f 87/161/43 90/160/43 88/45/43 78/46/43
f 88/45/2 8/45/2 5/46/2 78/46/2
