# Blender 4.0.1
# www.blender.org
mtllib base.mtl
o Cube
v -1.815764 -0.754719 0.000000
v 1.815764 0.754719 0.000000
v -1.815764 0.754719 0.000000
v 1.815764 -0.754719 0.000000
v -1.815764 -0.754719 1.691446
v 1.815764 0.754719 1.691446
v -1.815764 0.754719 1.691446
v 1.815764 -0.754719 1.691446
v -1.815764 0.754719 -1.691446
v 1.815764 -0.754719 -1.691446
v -1.815764 -0.754719 -1.691446
v 1.815764 0.754719 -1.691446
v 1.815764 0.000000 -3.382893
v -1.815764 0.000000 3.382893
v 1.815764 0.000000 3.382893
v -1.815764 0.000000 -3.382893
v 1.815764 0.000000 0.000000
v -1.815764 0.000000 0.000000
v -1.815764 0.000000 1.691446
v 1.815764 0.000000 1.691446
v 1.815764 0.000000 -1.691446
v -1.815764 0.000000 -1.691446
v 1.815764 0.000000 -3.382893
v 1.815764 0.754719 -1.691446
v 1.815764 0.059215 -3.377678
v 1.815764 0.118064 -3.362068
v 1.815764 0.176186 -3.336158
v 1.815764 0.233221 -3.300107
v 1.815764 0.288818 -3.254139
v 1.815764 0.342635 -3.198536
v 1.815764 0.394339 -3.133641
v 1.815764 0.443612 -3.059855
v 1.815764 0.490150 -2.977632
v 1.815764 0.533667 -2.887480
v 1.815764 0.573892 -2.789953
v 1.815764 0.610580 -2.685653
v 1.815764 0.643503 -2.575225
v 1.815764 0.672459 -2.459347
v 1.815764 0.697269 -2.338735
v 1.815764 0.717780 -2.214132
v 1.815764 0.733866 -2.086307
v 1.815764 0.745427 -1.956047
v 1.815764 0.752392 -1.824156
v -1.815764 0.754719 -1.691446
v -1.815764 0.000000 -3.382893
v -1.815764 0.752392 -1.824156
v -1.815764 0.745427 -1.956047
v -1.815764 0.733866 -2.086307
v -1.815764 0.717780 -2.214132
v -1.815764 0.697269 -2.338735
v -1.815764 0.672459 -2.459347
v -1.815764 0.643503 -2.575225
v -1.815764 0.610580 -2.685653
v -1.815764 0.573892 -2.789953
v -1.815764 0.533667 -2.887480
v -1.815764 0.490150 -2.977632
v -1.815764 0.443612 -3.059855
v -1.815764 0.394339 -3.133641
v -1.815764 0.342635 -3.198536
v -1.815764 0.288818 -3.254139
v -1.815764 0.233221 -3.300107
v -1.815764 0.176186 -3.336158
v -1.815764 0.118064 -3.362068
v -1.815764 0.059215 -3.377678
v 1.815764 -0.754719 -1.691446
v 1.815764 0.000000 -3.382893
v 1.815764 -0.752392 -1.824156
v 1.815764 -0.745427 -1.956047
v 1.815764 -0.733866 -2.086307
v 1.815764 -0.717780 -2.214132
v 1.815764 -0.697269 -2.338735
v 1.815764 -0.672459 -2.459347
v 1.815764 -0.643503 -2.575225
v 1.815764 -0.610580 -2.685653
v 1.815764 -0.573892 -2.789953
v 1.815764 -0.533667 -2.887480
v 1.815764 -0.490150 -2.977632
v 1.815764 -0.443612 -3.059855
v 1.815764 -0.394339 -3.133641
v 1.815764 -0.342635 -3.198536
v 1.815764 -0.288818 -3.254139
v 1.815764 -0.233221 -3.300107
v 1.815764 -0.176186 -3.336158
v 1.815764 -0.118064 -3.362068
v 1.815764 -0.059215 -3.377678
v -1.815764 0.000000 -3.382893
v -1.815764 -0.754719 -1.691446
v -1.815764 -0.059215 -3.377678
v -1.815764 -0.118064 -3.362068
v -1.815764 -0.176186 -3.336158
v -1.815764 -0.233221 -3.300107
v -1.815764 -0.288818 -3.254139
v -1.815764 -0.342635 -3.198536
v -1.815764 -0.394339 -3.133641
v -1.815764 -0.443612 -3.059855
v -1.815764 -0.490150 -2.977632
v -1.815764 -0.533667 -2.887480
v -1.815764 -0.573892 -2.789953
v -1.815764 -0.610580 -2.685653
v -1.815764 -0.643503 -2.575225
v -1.815764 -0.672459 -2.459347
v -1.815764 -0.697269 -2.338735
v -1.815764 -0.717780 -2.214132
v -1.815764 -0.733866 -2.086307
v -1.815764 -0.745427 -1.956047
v -1.815764 -0.752392 -1.824156
v 1.815764 0.754719 1.691446
v 1.815764 0.000000 3.382893
v 1.815764 0.752392 1.824156
v 1.815764 0.745427 1.956047
v 1.815764 0.733866 2.086307
v 1.815764 0.717780 2.214132
v 1.815764 0.697269 2.338735
v 1.815764 0.672459 2.459347
v 1.815764 0.643503 2.575225
v 1.815764 0.610580 2.685653
v 1.815764 0.573892 2.789953
v 1.815764 0.533667 2.887480
v 1.815764 0.490150 2.977632
v 1.815764 0.443612 3.059855
v 1.815764 0.394339 3.133641
v 1.815764 0.342635 3.198536
v 1.815764 0.288818 3.254139
v 1.815764 0.233221 3.300107
v 1.815764 0.176186 3.336158
v 1.815764 0.118064 3.362068
v 1.815764 0.059215 3.377678
v -1.815764 0.000000 3.382893
v -1.815764 0.754719 1.691446
v -1.815764 0.059215 3.377678
v -1.815764 0.118064 3.362068
v -1.815764 0.176186 3.336158
v -1.815764 0.233221 3.300107
v -1.815764 0.288818 3.254139
v -1.815764 0.342635 3.198536
v -1.815764 0.394339 3.133641
v -1.815764 0.443612 3.059855
v -1.815764 0.490150 2.977632
v -1.815764 0.533667 2.887480
v -1.815764 0.573892 2.789953
v -1.815764 0.610580 2.685653
v -1.815764 0.643503 2.575225
v -1.815764 0.672459 2.459347
v -1.815764 0.697269 2.338735
v -1.815764 0.717780 2.214132
v -1.815764 0.733866 2.086307
v -1.815764 0.745427 1.956047
v -1.815764 0.752392 1.824156
v 1.815764 0.000000 3.382893
v 1.815764 -0.754719 1.691446
v 1.815764 -0.059215 3.377678
v 1.815764 -0.118064 3.362068
v 1.815764 -0.176186 3.336158
v 1.815764 -0.233221 3.300107
v 1.815764 -0.288818 3.254139
v 1.815764 -0.342635 3.198536
v 1.815764 -0.394339 3.133641
v 1.815764 -0.443612 3.059855
v 1.815764 -0.490150 2.977632
v 1.815764 -0.533667 2.887480
v 1.815764 -0.573892 2.789953
v 1.815764 -0.610580 2.685653
v 1.815764 -0.643503 2.575225
v 1.815764 -0.672459 2.459347
v 1.815764 -0.697269 2.338735
v 1.815764 -0.717780 2.214132
v 1.815764 -0.733866 2.086307
v 1.815764 -0.745427 1.956047
v 1.815764 -0.752392 1.824156
v -1.815764 -0.754719 1.691446
v -1.815764 0.000000 3.382893
v -1.815764 -0.752392 1.824156
v -1.815764 -0.745427 1.956047
v -1.815764 -0.733866 2.086307
v -1.815764 -0.717780 2.214132
v -1.815764 -0.697269 2.338735
v -1.815764 -0.672459 2.459347
v -1.815764 -0.643503 2.575225
v -1.815764 -0.610580 2.685653
v -1.815764 -0.573892 2.789953
v -1.815764 -0.533667 2.887480
v -1.815764 -0.490150 2.977632
v -1.815764 -0.443612 3.059855
v -1.815764 -0.394339 3.133641
v -1.815764 -0.342635 3.198536
v -1.815764 -0.288818 3.254139
v -1.815764 -0.233221 3.300107
v -1.815764 -0.176186 3.336158
v -1.815764 -0.118064 3.362068
v -1.815764 -0.059215 3.377678
vn 1.0000 -0.0000 -0.0000
vn -0.0000 1.0000 -0.0000
vn -1.0000 -0.0000 -0.0000
vn -0.0000 -1.0000 -0.0000
vn -0.0000 0.9998 -0.0175
vn -0.0000 0.9986 -0.0527
vn -0.0000 0.9961 -0.0884
vn -0.0000 0.9922 -0.1249
vn -0.0000 0.9867 -0.1624
vn -0.0000 0.9795 -0.2015
vn -0.0000 0.9702 -0.2424
vn -0.0000 0.9583 -0.2857
vn -0.0000 0.9433 -0.3318
vn -0.0000 0.9245 -0.3813
vn -0.0000 0.9006 -0.4347
vn -0.0000 0.8703 -0.4926
vn -0.0000 0.8316 -0.5553
vn -0.0000 0.7821 -0.6231
vn -0.0000 0.7186 -0.6955
vn -0.0000 0.6372 -0.7707
vn -0.0000 0.5343 -0.8453
vn -0.0000 0.4072 -0.9134
vn -0.0000 0.2564 -0.9666
vn -0.0000 0.0877 -0.9961
vn -0.0000 -0.9998 -0.0175
vn -0.0000 -0.9986 -0.0527
vn -0.0000 -0.9961 -0.0884
vn -0.0000 -0.9922 -0.1249
vn -0.0000 -0.9867 -0.1624
vn -0.0000 -0.9795 -0.2015
vn -0.0000 -0.9702 -0.2424
vn -0.0000 -0.9583 -0.2857
vn -0.0000 -0.9433 -0.3318
vn -0.0000 -0.9245 -0.3813
vn -0.0000 -0.9006 -0.4347
vn -0.0000 -0.8703 -0.4926
vn -0.0000 -0.8316 -0.5553
vn -0.0000 -0.7821 -0.6231
vn -0.0000 -0.7186 -0.6955
vn -0.0000 -0.6372 -0.7707
vn -0.0000 -0.5343 -0.8453
vn -0.0000 -0.4072 -0.9134
vn -0.0000 -0.2564 -0.9666
vn -0.0000 -0.0877 -0.9961
vn -0.0000 0.9998 0.0175
vn -0.0000 0.9986 0.0527
vn -0.0000 0.9961 0.0884
vn -0.0000 0.9922 0.1249
vn -0.0000 0.9867 0.1624
vn -0.0000 0.9795 0.2015
vn -0.0000 0.9702 0.2424
vn -0.0000 0.9583 0.2857
vn -0.0000 0.9433 0.3318
vn -0.0000 0.9245 0.3813
vn -0.0000 0.9006 0.4347
vn -0.0000 0.8703 0.4926
vn -0.0000 0.8316 0.5553
vn -0.0000 0.7821 0.6231
vn -0.0000 0.7186 0.6955
vn -0.0000 0.6372 0.7707
vn -0.0000 0.5343 0.8453
vn -0.0000 0.4072 0.9134
vn -0.0000 0.2564 0.9666
vn -0.0000 0.0877 0.9961
vn -0.0000 -0.9998 0.0175
vn -0.0000 -0.9986 0.0527
vn -0.0000 -0.9961 0.0884
vn -0.0000 -0.9922 0.1249
vn -0.0000 -0.9867 0.1624
vn -0.0000 -0.9795 0.2015
vn -0.0000 -0.9702 0.2424
vn -0.0000 -0.9583 0.2857
vn -0.0000 -0.9433 0.3318
vn -0.0000 -0.9245 0.3813
vn -0.0000 -0.9006 0.4347
vn -0.0000 -0.8703 0.4926
vn -0.0000 -0.8316 0.5553
vn -0.0000 -0.7821 0.6231
vn -0.0000 -0.7186 0.6955
vn -0.0000 -0.6372 0.7707
vn -0.0000 -0.5343 0.8453
vn -0.0000 -0.4072 0.9134
vn -0.0000 -0.2564 0.9666
vn -0.0000 -0.0877 0.9961
vt 0.500000 0.687500
vt 0.625000 0.687500
vt 0.624615 0.692404
vt 0.623461 0.697277
vt 0.621546 0.702090
vt 0.618882 0.706814
vt 0.615485 0.711418
vt 0.611376 0.715874
vt 0.606580 0.720156
vt 0.601127 0.724237
vt 0.595051 0.728090
vt 0.588388 0.731694
vt 0.581181 0.735025
vt 0.573473 0.738064
vt 0.565312 0.740790
vt 0.556749 0.743188
vt 0.547835 0.745242
vt 0.538627 0.746941
vt 0.529181 0.748273
vt 0.519554 0.749231
vt 0.509807 0.749807
vt 0.500000 0.750000
vt 0.875000 0.687500
vt 0.375000 0.687500
vt 0.490193 0.749807
vt 0.480446 0.749231
vt 0.470819 0.748273
vt 0.461373 0.746941
vt 0.452165 0.745242
vt 0.443251 0.743188
vt 0.434688 0.740790
vt 0.426527 0.738064
vt 0.418819 0.735025
vt 0.411612 0.731694
vt 0.404949 0.728090
vt 0.398873 0.724237
vt 0.393420 0.720156
vt 0.388624 0.715874
vt 0.384515 0.711418
vt 0.381118 0.706814
vt 0.378454 0.702090
vt 0.376539 0.697277
vt 0.375385 0.692404
vt 0.500000 0.000000
vt 0.509807 0.000193
vt 0.519554 0.000769
vt 0.529181 0.001727
vt 0.538627 0.003059
vt 0.547835 0.004758
vt 0.556749 0.006812
vt 0.565312 0.009210
vt 0.573473 0.011936
vt 0.581181 0.014975
vt 0.588388 0.018306
vt 0.595051 0.021909
vt 0.601127 0.025763
vt 0.606580 0.029844
vt 0.611376 0.034126
vt 0.615485 0.038582
vt 0.618882 0.043186
vt 0.621546 0.047910
vt 0.623461 0.052723
vt 0.624615 0.057596
vt 0.625000 0.062500
vt 0.500000 0.062500
vt 0.500000 0.187500
vt 0.625000 0.187500
vt 0.624615 0.192404
vt 0.623461 0.197277
vt 0.621546 0.202090
vt 0.618882 0.206814
vt 0.615485 0.211418
vt 0.611376 0.215874
vt 0.606580 0.220156
vt 0.601127 0.224237
vt 0.595051 0.228090
vt 0.588388 0.231694
vt 0.581181 0.235025
vt 0.573473 0.238064
vt 0.565312 0.240790
vt 0.556749 0.243188
vt 0.547835 0.245242
vt 0.538627 0.246941
vt 0.529181 0.248273
vt 0.519554 0.249231
vt 0.509807 0.249807
vt 0.500000 0.250000
vt 0.500000 0.562500
vt 0.625000 0.562500
vt 0.625000 0.625000
vt 0.500000 0.625000
vt 0.125000 0.562500
vt 0.375000 0.562500
vt 0.375000 0.625000
vt 0.125000 0.625000
vt 0.625000 0.125000
vt 0.500000 0.125000
vt 0.875000 0.562500
vt 0.875000 0.625000
vt 0.125000 0.687500
vt 0.500000 0.500000
vt 0.509807 0.500193
vt 0.519554 0.500769
vt 0.529181 0.501727
vt 0.538627 0.503059
vt 0.547835 0.504758
vt 0.556749 0.506812
vt 0.565312 0.509210
vt 0.573473 0.511936
vt 0.581181 0.514975
vt 0.588388 0.518306
vt 0.595051 0.521909
vt 0.601127 0.525763
vt 0.606580 0.529844
vt 0.611376 0.534126
vt 0.615485 0.538582
vt 0.618882 0.543186
vt 0.621546 0.547910
vt 0.623461 0.552723
vt 0.624615 0.557596
vt 0.375000 0.187500
vt 0.490193 0.249807
vt 0.480446 0.249231
vt 0.470819 0.248273
vt 0.461373 0.246941
vt 0.452165 0.245242
vt 0.443251 0.243188
vt 0.434688 0.240790
vt 0.426527 0.238064
vt 0.418819 0.235025
vt 0.411612 0.231694
vt 0.404949 0.228090
vt 0.398873 0.224237
vt 0.393420 0.220156
vt 0.388624 0.215874
vt 0.384515 0.211418
vt 0.381118 0.206814
vt 0.378454 0.202090
vt 0.376539 0.197277
vt 0.375385 0.192404
vt 0.375000 0.125000
vt 0.375000 0.062500
vt 0.375385 0.557596
vt 0.376539 0.552723
vt 0.378454 0.547910
vt 0.381118 0.543186
vt 0.384515 0.538582
vt 0.388624 0.534126
vt 0.393420 0.529844
vt 0.398873 0.525763
vt 0.404949 0.521909
vt 0.411612 0.518306
vt 0.418819 0.514975
vt 0.426527 0.511936
vt 0.434688 0.509210
vt 0.443251 0.506812
vt 0.452165 0.504758
vt 0.461373 0.503059
vt 0.470819 0.501727
vt 0.480446 0.500769
vt 0.490193 0.500193
vt 0.375385 0.057596
vt 0.376539 0.052723
vt 0.378454 0.047910
vt 0.381118 0.043186
vt 0.384515 0.038582
vt 0.388624 0.034126
vt 0.393420 0.029844
vt 0.398873 0.025763
vt 0.404949 0.021909
vt 0.411612 0.018306
vt 0.418819 0.014975
vt 0.426527 0.011936
vt 0.434688 0.009210
vt 0.443251 0.006812
vt 0.452165 0.004758
vt 0.461373 0.003059
vt 0.470819 0.001727
vt 0.480446 0.000769
vt 0.490193 0.000193
vt 0.625000 0.557596
vt 0.875000 0.557596
vt 0.625000 0.552723
vt 0.875000 0.552723
vt 0.625000 0.547910
vt 0.875000 0.547910
vt 0.625000 0.543186
vt 0.875000 0.543186
vt 0.625000 0.538582
vt 0.875000 0.538582
vt 0.625000 0.534126
vt 0.875000 0.534126
vt 0.625000 0.529844
vt 0.875000 0.529844
vt 0.625000 0.525763
vt 0.875000 0.525763
vt 0.625000 0.521909
vt 0.875000 0.521909
vt 0.625000 0.500000
vt 0.875000 0.500000
vt 0.625000 0.250000
vt 0.581181 0.500000
vt 0.581181 0.250000
vt 0.573473 0.500000
vt 0.573473 0.250000
vt 0.565312 0.500000
vt 0.565312 0.250000
vt 0.556749 0.500000
vt 0.556749 0.250000
vt 0.547835 0.500000
vt 0.547835 0.250000
vt 0.538627 0.500000
vt 0.538627 0.250000
vt 0.529181 0.500000
vt 0.529181 0.250000
vt 0.519554 0.500000
vt 0.519554 0.250000
vt 0.509807 0.500000
vt 0.509807 0.250000
vt 0.125000 0.557596
vt 0.375000 0.557596
vt 0.125000 0.552723
vt 0.375000 0.552723
vt 0.125000 0.547910
vt 0.375000 0.547910
vt 0.125000 0.543186
vt 0.375000 0.543186
vt 0.125000 0.538582
vt 0.375000 0.538582
vt 0.125000 0.534126
vt 0.375000 0.534126
vt 0.125000 0.529844
vt 0.375000 0.529844
vt 0.125000 0.525763
vt 0.375000 0.525763
vt 0.125000 0.521909
vt 0.375000 0.521909
vt 0.125000 0.500000
vt 0.375000 0.500000
vt 0.375000 0.250000
vt 0.418819 0.250000
vt 0.418819 0.500000
vt 0.426527 0.250000
vt 0.426527 0.500000
vt 0.434688 0.250000
vt 0.434688 0.500000
vt 0.443251 0.250000
vt 0.443251 0.500000
vt 0.452165 0.250000
vt 0.452165 0.500000
vt 0.461373 0.250000
vt 0.461373 0.500000
vt 0.470819 0.250000
vt 0.470819 0.500000
vt 0.480446 0.250000
vt 0.480446 0.500000
vt 0.490193 0.250000
vt 0.490193 0.500000
vt 0.875000 0.692404
vt 0.625000 0.692404
vt 0.875000 0.697277
vt 0.625000 0.697277
vt 0.875000 0.702090
vt 0.625000 0.702090
vt 0.875000 0.706814
vt 0.625000 0.706814
vt 0.875000 0.711418
vt 0.625000 0.711418
vt 0.875000 0.715874
vt 0.625000 0.715874
vt 0.875000 0.720156
vt 0.625000 0.720156
vt 0.875000 0.724237
vt 0.625000 0.724237
vt 0.875000 0.728091
vt 0.625000 0.728091
vt 0.875000 0.750000
vt 0.625000 0.750000
vt 0.625000 1.000000
vt 0.581181 1.000000
vt 0.581181 0.750000
vt 0.573473 1.000000
vt 0.573473 0.750000
vt 0.565312 1.000000
vt 0.565312 0.750000
vt 0.556749 1.000000
vt 0.556749 0.750000
vt 0.547835 1.000000
vt 0.547835 0.750000
vt 0.538627 1.000000
vt 0.538627 0.750000
vt 0.529181 1.000000
vt 0.529181 0.750000
vt 0.519554 1.000000
vt 0.519554 0.750000
vt 0.509807 1.000000
vt 0.509807 0.750000
vt 0.500000 1.000000
vt 0.375000 0.692404
vt 0.125000 0.692404
vt 0.375000 0.697277
vt 0.125000 0.697277
vt 0.375000 0.702090
vt 0.125000 0.702090
vt 0.375000 0.706814
vt 0.125000 0.706814
vt 0.375000 0.711418
vt 0.125000 0.711418
vt 0.375000 0.715874
vt 0.125000 0.715874
vt 0.375000 0.720156
vt 0.125000 0.720156
vt 0.375000 0.724237
vt 0.125000 0.724237
vt 0.375000 0.728091
vt 0.125000 0.728091
vt 0.375000 0.750000
vt 0.125000 0.750000
vt 0.375000 1.000000
vt 0.418819 0.750000
vt 0.418819 1.000000
vt 0.426527 0.750000
vt 0.426527 1.000000
vt 0.434688 0.750000
vt 0.434688 1.000000
vt 0.443251 0.750000
vt 0.443251 1.000000
vt 0.452165 0.750000
vt 0.452165 1.000000
vt 0.461373 0.750000
vt 0.461373 1.000000
vt 0.470819 0.750000
vt 0.470819 1.000000
vt 0.480446 0.750000
vt 0.480446 1.000000
vt 0.490193 0.750000
vt 0.490193 1.000000
s 0
usemtl Material
f 20/1/1 6/2/1 107/2/1 109/3/1 110/4/1 111/5/1 112/6/1 113/7/1 114/8/1 115/9/1 116/10/1 117/11/1 118/12/1 119/13/1 120/14/1 121/15/1 122/16/1 123/17/1 124/18/1 125/19/1 126/20/1 127/21/1 108/22/1 15/22/1
f 6/2/2 7/23/2 129/23/2 107/2/2
f 8/24/1 20/1/1 15/22/1 149/22/1 151/25/1 152/26/1 153/27/1 154/28/1 155/29/1 156/30/1 157/31/1 158/32/1 159/33/1 160/34/1 161/35/1 162/36/1 163/37/1 164/38/1 165/39/1 166/40/1 167/41/1 168/42/1 169/43/1 150/24/1
f 14/44/3 128/44/3 130/45/3 131/46/3 132/47/3 133/48/3 134/49/3 135/50/3 136/51/3 137/52/3 138/53/3 139/54/3 140/55/3 141/56/3 142/57/3 143/58/3 144/59/3 145/60/3 146/61/3 147/62/3 148/63/3 129/64/3 7/64/3 19/65/3
f 22/66/3 9/67/3 44/67/3 46/68/3 47/69/3 48/70/3 49/71/3 50/72/3 51/73/3 52/74/3 53/75/3 54/76/3 55/77/3 56/78/3 57/79/3 58/80/3 59/81/3 60/82/3 61/83/3 62/84/3 63/85/3 64/86/3 45/87/3 16/87/3
f 21/88/1 12/89/1 2/90/1 17/91/1
f 11/92/4 10/93/4 4/94/4 1/95/4
f 19/65/3 7/64/3 3/96/3 18/97/3
f 12/89/2 9/98/2 3/99/2 2/90/2
f 17/91/1 2/90/1 6/2/1 20/1/1
f 1/95/4 4/94/4 8/24/4 5/100/4
f 2/90/2 3/99/2 7/23/2 6/2/2
f 13/101/1 23/101/1 25/102/1 26/103/1 27/104/1 28/105/1 29/106/1 30/107/1 31/108/1 32/109/1 33/110/1 34/111/1 35/112/1 36/113/1 37/114/1 38/115/1 39/116/1 40/117/1 41/118/1 42/119/1 43/120/1 24/89/1 12/89/1 21/88/1
f 11/121/3 22/66/3 16/87/3 86/87/3 88/122/3 89/123/3 90/124/3 91/125/3 92/126/3 93/127/3 94/128/3 95/129/3 96/130/3 97/131/3 98/132/3 99/133/3 100/134/3 101/135/3 102/136/3 103/137/3 104/138/3 105/139/3 106/140/3 87/121/3
f 16/87/2 45/87/2 23/101/2 13/101/2
f 18/97/3 3/96/3 9/67/3 22/66/3
f 1/141/3 18/97/3 22/66/3 11/121/3
f 87/92/2 65/93/2 10/93/2 11/92/2
f 4/94/1 17/91/1 20/1/1 8/24/1
f 5/142/3 19/65/3 18/97/3 1/141/3
f 10/93/1 21/88/1 17/91/1 4/94/1
f 65/93/1 67/143/1 68/144/1 69/145/1 70/146/1 71/147/1 72/148/1 73/149/1 74/150/1 75/151/1 76/152/1 77/153/1 78/154/1 79/155/1 80/156/1 81/157/1 82/158/1 83/159/1 84/160/1 85/161/1 66/101/1 13/101/1 21/88/1 10/93/1
f 170/142/3 172/162/3 173/163/3 174/164/3 175/165/3 176/166/3 177/167/3 178/168/3 179/169/3 180/170/3 181/171/3 182/172/3 183/173/3 184/174/3 185/175/3 186/176/3 187/177/3 188/178/3 189/179/3 190/180/3 171/44/3 14/44/3 19/65/3 5/142/3
f 5/100/2 8/24/2 150/24/2 170/100/2
f 44/98/5 24/89/5 43/181/5 46/182/5
f 46/182/6 43/181/6 42/183/6 47/184/6
f 47/184/7 42/183/7 41/185/7 48/186/7
f 48/186/8 41/185/8 40/187/8 49/188/8
f 49/188/9 40/187/9 39/189/9 50/190/9
f 50/190/10 39/189/10 38/191/10 51/192/10
f 51/192/11 38/191/11 37/193/11 52/194/11
f 52/194/12 37/193/12 36/195/12 53/196/12
f 53/196/13 36/195/13 35/197/13 54/198/13
f 54/198/14 35/197/14 34/199/14 55/200/14
f 55/201/15 34/199/15 33/202/15 56/203/15
f 56/203/16 33/202/16 32/204/16 57/205/16
f 57/205/17 32/204/17 31/206/17 58/207/17
f 58/207/18 31/206/18 30/208/18 59/209/18
f 59/209/19 30/208/19 29/210/19 60/211/19
f 60/211/20 29/210/20 28/212/20 61/213/20
f 61/213/21 28/212/21 27/214/21 62/215/21
f 62/215/22 27/214/22 26/216/22 63/217/22
f 63/217/23 26/216/23 25/218/23 64/219/23
f 64/219/24 25/218/24 23/101/24 45/87/24
f 24/89/2 44/98/2 9/98/2 12/89/2
f 65/93/25 87/92/25 106/220/25 67/221/25
f 67/221/26 106/220/26 105/222/26 68/223/26
f 68/223/27 105/222/27 104/224/27 69/225/27
f 69/225/28 104/224/28 103/226/28 70/227/28
f 70/227/29 103/226/29 102/228/29 71/229/29
f 71/229/30 102/228/30 101/230/30 72/231/30
f 72/231/31 101/230/31 100/232/31 73/233/31
f 73/233/32 100/232/32 99/234/32 74/235/32
f 74/235/33 99/234/33 98/236/33 75/237/33
f 75/237/34 98/236/34 97/238/34 76/239/34
f 76/239/35 97/240/35 96/241/35 77/242/35
f 77/242/36 96/241/36 95/243/36 78/244/36
f 78/244/37 95/243/37 94/245/37 79/246/37
f 79/246/38 94/245/38 93/247/38 80/248/38
f 80/248/39 93/247/39 92/249/39 81/250/39
f 81/250/40 92/249/40 91/251/40 82/252/40
f 82/252/41 91/251/41 90/253/41 83/254/41
f 83/254/42 90/253/42 89/255/42 84/256/42
f 84/256/43 89/255/43 88/257/43 85/258/43
f 85/258/44 88/257/44 86/87/44 66/101/44
f 86/87/2 16/87/2 13/101/2 66/101/2
f 107/2/45 129/23/45 148/259/45 109/260/45
f 109/260/46 148/259/46 147/261/46 110/262/46
f 110/262/47 147/261/47 146/263/47 111/264/47
f 111/264/48 146/263/48 145/265/48 112/266/48
f 112/266/49 145/265/49 144/267/49 113/268/49
f 113/268/50 144/267/50 143/269/50 114/270/50
f 114/270/51 143/269/51 142/271/51 115/272/51
f 115/272/52 142/271/52 141/273/52 116/274/52
f 116/274/53 141/273/53 140/275/53 117/276/53
f 117/276/54 140/275/54 139/277/54 118/278/54
f 118/278/55 139/279/55 138/280/55 119/281/55
f 119/281/56 138/280/56 137/282/56 120/283/56
f 120/283/57 137/282/57 136/284/57 121/285/57
f 121/285/58 136/284/58 135/286/58 122/287/58
f 122/287/59 135/286/59 134/288/59 123/289/59
f 123/289/60 134/288/60 133/290/60 124/291/60
f 124/291/61 133/290/61 132/292/61 125/293/61
f 125/293/62 132/292/62 131/294/62 126/295/62
f 126/295/63 131/294/63 130/296/63 127/297/63
f 127/297/64 130/296/64 128/298/64 108/22/64
f 15/22/2 108/22/2 128/298/2 14/298/2
f 170/100/65 150/24/65 169/299/65 172/300/65
f 172/300/66 169/299/66 168/301/66 173/302/66
f 173/302/67 168/301/67 167/303/67 174/304/67
f 174/304/68 167/303/68 166/305/68 175/306/68
f 175/306/69 166/305/69 165/307/69 176/308/69
f 176/308/70 165/307/70 164/309/70 177/310/70
f 177/310/71 164/309/71 163/311/71 178/312/71
f 178/312/72 163/311/72 162/313/72 179/314/72
f 179/314/73 162/313/73 161/315/73 180/316/73
f 180/316/74 161/315/74 160/317/74 181/318/74
f 181/319/75 160/317/75 159/320/75 182/321/75
f 182/321/76 159/320/76 158/322/76 183/323/76
f 183/323/77 158/322/77 157/324/77 184/325/77
f 184/325/78 157/324/78 156/326/78 185/327/78
f 185/327/79 156/326/79 155/328/79 186/329/79
f 186/329/80 155/328/80 154/330/80 187/331/80
f 187/331/81 154/330/81 153/332/81 188/333/81
f 188/333/82 153/332/82 152/334/82 189/335/82
f 189/335/83 152/334/83 151/336/83 190/337/83
f 190/337/84 151/336/84 149/22/84 171/298/84
f 149/22/2 15/22/2 14/298/2 171/298/2
